<svg width="106" height="107" viewBox="0 0 106 107" fill="none" xmlns="http://www.w3.org/2000/svg">
<circle cx="52.8406" cy="53.6272" r="52.8406" fill="#FFF799"/>
<path fill-rule="evenodd" clip-rule="evenodd" d="M62.095 11.8687C63.8052 12.7688 64.9528 13.6689 65.5378 14.569V36.5764C62.0275 34.9112 58.9671 33.6736 56.3568 32.8635C53.7465 32.0084 51.0688 31.5809 48.3234 31.5809C42.4278 31.5809 37.0947 33.0435 32.3242 35.9688C27.5537 38.8942 23.7957 42.9671 21.0504 48.1877C18.3501 53.4082 17 59.3264 17 65.9421C17 71.7028 18.2151 76.8108 20.6454 81.2663C23.0757 85.6768 26.3835 89.1197 30.569 91.5949C34.7995 94.0252 39.4575 95.2403 44.543 95.2403C48.5485 95.2403 52.3064 94.3402 55.8168 92.54C59.3272 90.6948 62.68 87.927 65.8754 84.2366L66.4829 94.7003H71.0059L89.0304 91.7299V88.017C86.3751 88.017 83.8774 87.432 81.5371 86.2619C79.2419 85.0917 78.0942 83.1565 78.0942 80.4562V1L73.2337 1.47255L54.1966 6.06306L54.0616 8.42581C54.5566 8.56083 55.5917 8.94337 57.1669 9.57344C58.7871 10.2035 60.4298 10.9686 62.095 11.8687ZM64.3902 48.9303C65.1553 51.5855 65.5378 55.0959 65.5378 59.4614V77.6594C63.3944 80.3632 59.3369 82.5445 57.7963 83.1023C56.1867 83.6851 54.1747 83.9765 51.7603 83.9765C48.9852 83.9765 46.5986 83.255 44.6005 81.8119C42.6301 80.3688 41.1315 78.4401 40.1047 76.0257C39.0779 73.6113 38.5645 70.9611 38.5645 68.0749C38.5645 64.9668 39.1196 62.3026 40.2296 60.0825C41.3674 57.8624 42.866 56.1973 44.7254 55.0873C46.5847 53.9495 48.5828 53.4222 50.7197 53.5054C52.3292 53.5609 53.5642 53.8385 54.4245 54.338C55.2848 54.8375 55.8676 55.4203 56.1728 56.0863C56.5058 56.7524 56.7834 57.6126 57.0054 58.6672C57.1996 59.4997 57.3939 60.1519 57.5881 60.6237C57.8102 61.0677 58.157 61.4562 58.6288 61.7892C59.1006 62.0945 59.7666 62.2471 60.6269 62.2471C61.5427 62.2471 62.403 61.9696 63.2078 61.4146C64.0126 60.8318 64.415 59.916 64.415 58.6672C64.415 57.0299 63.8461 55.5868 62.7083 54.338C61.5982 53.0892 60.0719 52.1317 58.1293 51.4657C56.1867 50.7719 54.0498 50.425 51.7187 50.425C47.6948 50.425 44.101 51.3131 40.9373 53.0892C37.7736 54.8375 35.3176 57.238 33.5693 60.2907C31.8209 63.3156 30.9468 66.6596 30.9468 70.3228C30.9468 70.7513 30.9578 71.1759 30.9798 71.5968C30.0309 68.4093 29.5564 65.1067 29.5564 61.6892C29.5564 57.2787 30.299 53.1832 31.7841 49.4028C33.3143 45.5774 35.452 42.5171 38.1973 40.2218C40.9426 37.9265 44.093 36.7789 47.6484 36.7789C49.7636 36.7789 51.8563 37.229 53.9266 38.1291C55.9968 38.9842 57.932 40.1993 59.7322 41.7745C62.0725 43.8447 63.6251 46.23 64.3902 48.9303Z" fill="#080808"/>
</svg>
