<svg width="107" height="111" viewBox="0 0 107 111" fill="none" xmlns="http://www.w3.org/2000/svg">
<circle cx="53.5281" cy="57.8772" r="52.7792" stroke="black" stroke-opacity="0.92" stroke-width="0.122885"/>
<circle cx="53.5281" cy="57.8772" r="52.8406" fill="#FFF799"/>
<circle cx="53.2209" cy="58.1844" r="36.5583" fill="#ECD452"/>
<path d="M63.5273 82.9016C63.1069 84.2429 60.5451 86.2248 59.464 87.1657C58.383 88.1066 57.1118 88.8173 55.6504 89.2978C54.189 89.7582 52.6675 89.9884 51.086 89.9884C48.3233 89.9884 45.931 89.3478 43.9091 88.0666C41.9072 86.7654 40.3857 85.0437 39.3447 82.9016C38.3037 80.7596 37.7832 78.4374 37.7832 75.9349C37.7832 73.2924 38.4138 70.8801 39.675 68.698C40.9362 66.4959 42.7079 64.7642 44.9901 63.503C47.2723 62.2218 49.8648 61.5812 52.7676 61.5812C54.4492 61.5812 55.9907 61.8314 57.392 62.3319C58.7934 62.8123 59.8944 63.503 60.6952 64.4039C61.516 65.3047 61.9264 66.3457 61.9264 67.5269C61.9264 68.4277 61.6361 69.0884 61.0556 69.5088C60.475 69.9092 59.8544 70.1094 59.1938 70.1094C58.5732 70.1094 58.0927 69.9992 57.7524 69.779C57.4121 69.5388 57.1618 69.2585 57.0017 68.9382C56.8615 68.5979 56.7214 68.1274 56.5813 67.5269C56.4211 66.7661 56.2209 66.1455 55.9807 65.6651C55.7605 65.1846 55.3401 64.7642 54.7195 64.4039C54.0989 64.0435 53.208 63.8433 52.0469 63.8033C50.5054 63.7432 49.064 64.1236 47.7228 64.9444C46.3815 65.7452 45.3004 66.9463 44.4796 68.5479C43.6789 70.1494 43.2785 72.0712 43.2785 74.3134C43.2785 76.3954 43.6488 78.3072 44.3896 80.0489C45.1303 81.7906 46.2113 83.1819 47.6327 84.2229C49.0741 85.2639 50.7957 85.7844 52.7976 85.7844C54.5393 85.7844 55.9907 85.5742 57.1518 85.1538C58.3129 84.7334 61.4559 83.0346 62.9355 80.9632L63.5273 82.9016Z" fill="#080808"/>
<path d="M62.7363 35.7154C62.3142 35.0661 61.4863 34.4168 60.2526 33.7675C59.0514 33.1182 57.8664 32.5663 56.6977 32.1118C55.5614 31.6572 54.8147 31.3813 54.4575 31.2839L54.5549 29.5794L68.2879 26.268L71.7941 25.9271V83.245C71.7941 85.1929 72.622 86.5889 74.2778 87.433C75.966 88.2771 77.7678 88.6992 79.6833 88.6992V91.3776L66.6808 93.5203H63.418L62.9797 85.9721C60.6747 88.6342 58.256 90.6309 55.7237 91.962C53.1914 93.2606 50.4805 93.9099 47.5911 93.9099C43.9225 93.9099 40.5623 93.0333 37.5105 91.2802C34.4912 89.4946 32.105 87.011 30.3519 83.8293C28.5987 80.6153 27.7222 76.9304 27.7222 72.7748C27.7222 68.0024 28.6961 63.7332 30.6441 59.9672C32.6245 56.2012 35.3353 53.263 38.7767 51.1528C42.218 49.0425 46.0652 47.9874 50.3182 47.9874C52.2986 47.9874 54.2303 48.2958 56.1133 48.9127C57.9963 49.497 60.2039 50.3899 62.7363 51.5911V35.7154ZM62.7363 68.0998C62.7363 64.9506 62.4603 62.4183 61.9084 60.5029C61.3565 58.5549 60.2364 56.8343 58.5482 55.3408C57.2496 54.2046 55.8536 53.328 54.3601 52.7111C52.8667 52.0618 51.3571 51.7372 49.8312 51.7372C47.2664 51.7372 44.9938 52.565 43.0134 54.2208C41.033 55.8765 39.4909 58.0842 38.3871 60.8438C37.3157 63.5709 36.7801 66.5252 36.7801 69.7068C36.7801 72.7911 37.3157 75.7454 38.3871 78.5699C39.4909 81.362 41.1304 83.6508 43.3056 85.4364C45.4808 87.222 48.1105 88.1148 51.1948 88.1148C53.6621 88.1148 55.8536 87.5791 57.769 86.5077C59.717 85.4039 61.3727 83.943 62.7363 82.1249V68.0998Z" fill="#080808"/>
<path d="M61.7437 5.51792C61.8299 5.71584 61.7899 5.84728 61.6235 5.91224" stroke="#756C7A" stroke-width="0.274416"/>
<path d="M61.6232 5.91186C61.5268 5.69767 61.3882 5.51658 61.2075 5.36861" stroke="#9E9C9C" stroke-width="0.274416"/>
<path d="M61.2072 5.36911C61.096 5.17049 60.9415 5.01802 60.7437 4.91171" stroke="#756C7A" stroke-width="0.274416"/>
<path d="M60.7446 4.91194L60.5725 4.72449" stroke="#9E9C9C" stroke-width="0.274416"/>
<path d="M60.5727 4.72492C60.3932 4.52522 60.1725 4.37328 59.9104 4.26909" stroke="#756C7A" stroke-width="0.274416"/>
<path d="M59.9101 4.2688C59.5593 4.30876 59.3523 4.52365 59.2891 4.91347C59.1942 5.50053 59.1547 6.03124 59.1707 6.50559" stroke="#9E9C9C" stroke-width="0.274416"/>
<path d="M59.1707 6.50608C59.053 7.06453 59.0277 7.65204 59.0947 8.26862" stroke="#756C7A" stroke-width="0.274416"/>
<path d="M59.0946 8.26786L58.8782 10.0582" stroke="#9E9C9C" stroke-width="0.274416"/>
<path d="M58.8779 10.0578C58.7999 10.2459 58.764 10.451 58.7702 10.6731" stroke="#756C7A" stroke-width="0.274416"/>
<path d="M58.771 10.6734L58.5878 11.4552" stroke="#9E9C9C" stroke-width="0.274416"/>
<path d="M58.5877 11.4561L58.486 11.8081" stroke="#756C7A" stroke-width="0.274416"/>
<path d="M58.4859 11.8069L58.0084 12.8559" stroke="#9E9C9C" stroke-width="0.274416"/>
<path d="M58.0084 12.857C57.8325 13.0428 57.7163 13.2625 57.66 13.5161" stroke="#756C7A" stroke-width="0.274416"/>
<path d="M57.6602 13.5164C57.0368 14.4695 56.5599 15.3881 56.2295 16.2722C55.3793 18.5416 56.1294 21.2296 58.2668 22.5266C58.8557 22.8839 59.47 23.1884 60.1098 23.4401C60.1803 23.4676 60.2439 23.4715 60.3005 23.4519C60.4207 23.409 60.421 23.3648 60.3013 23.3192C59.7055 23.0972 59.2877 22.6827 59.0477 22.0757" stroke="#9E9C9C" stroke-width="0.274416"/>
<path d="M59.0473 22.0757C58.9267 21.3301 58.7294 20.5328 58.8033 19.8082C59.044 17.4333 60.471 15.0994 61.7859 13.2624C62.8556 11.7684 63.6754 10.6578 63.7885 8.88256" stroke="#756C7A" stroke-width="0.274416"/>
<path d="M63.7884 8.88229C63.9068 8.53102 63.9632 8.15767 63.9575 7.76223C63.9554 7.68235 63.9854 7.66726 64.0475 7.71697L64.0871 7.74817C64.1033 7.76118 64.1236 7.76795 64.1443 7.76726C64.165 7.76657 64.1848 7.75845 64.2 7.7444C64.5584 7.42395 64.8016 7.4005 64.7256 6.82091" stroke="#9E9C9C" stroke-width="0.274416"/>
<path d="M64.7256 6.82148L64.7092 6.68448" stroke="#756C7A" stroke-width="0.274416"/>
<path d="M64.7092 6.68386L64.8298 5.97997C64.8625 5.79 64.8035 5.75511 64.6529 5.87531L64.2896 6.16594" stroke="#9E9C9C" stroke-width="0.274416"/>
<path d="M64.2899 6.16664C64.1075 6.20497 63.9424 6.20345 63.7947 6.16209C63.7616 6.15268 63.7333 6.13084 63.7155 6.10105L63.385 5.55319C63.375 5.53707 63.3618 5.52318 63.3463 5.51236C63.3307 5.50154 63.3131 5.49403 63.2945 5.49028C63.2759 5.48654 63.2568 5.48664 63.2382 5.49059C63.2197 5.49454 63.2022 5.50225 63.1867 5.51324C63.012 5.63909 62.8958 5.80078 62.8383 5.99832" stroke="#756C7A" stroke-width="0.274416"/>
<path d="M62.8381 5.99879C62.5466 6.10354 62.3996 6.03031 62.3973 5.7791C62.3945 5.47728 62.3934 5.16237 62.3939 4.83436C62.3944 4.64546 62.3307 4.62081 62.2027 4.76042C62.1613 4.80682 62.1336 4.87184 62.1196 4.95549" stroke="#9E9C9C" stroke-width="0.274416"/>
<path d="M62.1197 4.95529C61.7402 5.07513 62.0261 5.43349 61.7433 5.51832" stroke="#756C7A" stroke-width="0.274416"/>
<path d="M64.7257 6.82088C64.5632 7.03461 64.3815 7.2299 64.1806 7.40677C64.0456 7.52603 63.9309 7.66867 63.8364 7.83468C63.5897 8.26895 62.9013 8.77658 62.4734 9.03621C61.0869 9.87759 59.7576 10.8015 58.4857 11.8079" stroke="#D6CFDD" stroke-width="0.274416"/>
<path d="M62.8377 5.99808C62.4776 6.84979 62.0642 7.67424 61.5972 8.47145C61.4333 8.74984 61.4851 8.79847 61.7528 8.61734C62.7366 7.952 63.582 7.13502 64.2892 6.1664" stroke="#D6CFDD" stroke-width="0.274416"/>
<path d="M64.71 6.68497C64.6378 6.6816 64.5847 6.6999 64.5507 6.73987C63.3057 8.17744 62.2893 8.84299 60.5443 9.85375C60.0652 10.131 59.413 10.6652 58.588 11.4562" stroke="#D6CFDD" stroke-width="0.274416"/>
<path d="M58.7706 10.6742C60.2023 9.65513 61.2519 8.33251 61.9194 6.70628C62.068 6.34497 62.1347 5.76127 62.1197 4.95517" stroke="#D6CFDD" stroke-width="0.274416"/>
<path d="M60.7437 4.91209C60.271 6.03976 59.8735 7.07234 59.5514 8.00981C59.3175 8.69081 59.3837 8.72114 59.7501 8.10081C60.276 7.21091 60.7617 6.30047 61.2072 5.36949" stroke="#D6CFDD" stroke-width="0.274416"/>
<path d="M61.6228 5.9127C60.9356 7.32386 60.018 9.08583 58.8779 10.059" stroke="#D6CFDD" stroke-width="0.274416"/>
<path d="M59.0469 22.0758C56.8151 20.7872 56.5706 17.2168 57.2135 14.9929C57.3563 14.4987 57.5049 14.0066 57.6593 13.5165" stroke="#D6CFDD" stroke-width="0.274416"/>
<path d="M63.7887 8.8823C61.6056 10.1125 59.5819 11.1841 58.0084 12.857" stroke="#D6CFDD" stroke-width="0.274416"/>
<path d="M60.5728 4.72474L59.0951 8.26824" stroke="#D6CFDD" stroke-width="0.274416"/>
<path d="M59.9101 4.26878C59.418 5.48904 59.4446 5.5849 59.9899 4.55635C60.0019 4.53282 60.0164 4.51543 60.0335 4.50418C60.0565 4.48854 60.0779 4.47908 60.0978 4.47579C60.1056 4.47446 60.1137 4.47522 60.1211 4.47798C60.1286 4.48075 60.1351 4.48542 60.1402 4.49154C60.1453 4.49766 60.1487 4.505 60.15 4.51283C60.1513 4.52066 60.1506 4.52871 60.1478 4.53616C59.8856 5.22697 59.5599 5.88345 59.1707 6.50557" stroke="#D6CFDD" stroke-width="0.274416"/>
<path d="M67.6085 12.7003C67.3655 12.9572 67.2849 12.8259 67.0339 12.795C66.5011 12.7305 65.9724 12.7543 65.4478 12.8666C65.208 12.9182 65.1956 13.003 65.4105 13.1211L65.7476 13.3062C65.7694 13.3182 65.7941 13.3239 65.8191 13.3226C65.8441 13.3214 65.8683 13.3132 65.889 13.299C66.1569 13.1197 66.382 13.1652 66.5644 13.4355C66.5778 13.4551 66.5854 13.4767 66.5873 13.5004C66.6007 13.6591 66.6383 13.7615 66.6999 13.8076C67.3795 14.3235 67.8385 14.9708 68.0768 15.7494C68.098 15.8187 68.1297 15.8449 68.1719 15.8279C68.1807 15.8243 68.1883 15.8183 68.1935 15.8105C68.1988 15.8027 68.2014 15.7935 68.2012 15.7843L68.1527 14.3571" stroke="#756C7A" stroke-width="0.274416"/>
<path d="M68.1525 14.3573C68.4354 13.7046 68.7768 12.9979 68.7709 12.2759C68.7686 11.9943 68.7844 11.7206 68.8181 11.455C68.8523 11.1847 68.7869 11.158 68.622 11.3747L67.6083 12.7005" stroke="#9E9C9C" stroke-width="0.274416"/>
<path d="M68.1527 14.3578L68.0386 13.447C68.0339 13.4153 68.0188 13.386 67.9955 13.3637C67.7989 13.1826 67.6699 12.9617 67.6084 12.7009" stroke="#D6CFDD" stroke-width="0.274416"/>
<path d="M65.6884 11.673C65.6585 11.9087 65.6087 12.1441 65.539 12.379C65.5323 12.4013 65.5313 12.4249 65.5362 12.4477C65.5412 12.4705 65.5518 12.4916 65.5672 12.5092C65.5825 12.5267 65.6021 12.54 65.624 12.5479C65.646 12.5557 65.6696 12.5579 65.6925 12.5541L65.9433 12.5132C65.965 12.5096 65.9856 12.5009 66.0032 12.4877C66.0209 12.4745 66.0351 12.4572 66.0446 12.4374C66.0542 12.4175 66.0588 12.3957 66.0582 12.3737C66.0575 12.3516 66.0515 12.3301 66.0408 12.3109C65.9261 12.1062 65.8324 11.8991 65.7595 11.6894C65.7233 11.5869 65.6996 11.5814 65.6884 11.673Z" stroke="#9E9C9C" stroke-width="0.274416"/>
<path d="M66.1208 15.4069L66.0755 15.375C66.0561 15.3613 66.0335 15.353 66.0098 15.3507C65.9862 15.3484 65.9624 15.3523 65.9407 15.362C65.919 15.3717 65.9002 15.3868 65.8861 15.4059C65.872 15.4251 65.8632 15.4475 65.8604 15.4711C65.827 15.7551 65.8425 15.9781 65.9069 16.1399C66.0541 16.5092 66.3359 16.8335 66.7524 17.1128C66.7702 17.1244 66.7904 17.1318 66.8115 17.1343C66.8327 17.1368 66.8542 17.1344 66.8744 17.1273C67.3872 16.9473 67.7638 16.6173 68.0042 16.1373C68.0123 16.1211 68.017 16.1033 68.0182 16.0852C68.0194 16.067 68.0169 16.0487 68.0109 16.0315C67.5254 14.6011 66.6769 13.9741 65.3762 13.3331C65.0562 13.1751 64.9538 13.2937 65.069 13.6889C65.2341 14.2551 65.5376 14.7298 65.9794 15.1129C66.0656 15.1873 66.1375 15.2575 66.1951 15.3234C66.4063 15.5645 66.3815 15.5923 66.1208 15.4069Z" stroke="#9E9C9C" stroke-width="0.274416"/>
<path d="M65.9921 17.4816C65.8457 17.2347 65.6741 17.2178 65.4775 17.431C65.4606 17.4484 65.4393 17.4614 65.4157 17.4688C64.9436 17.6116 64.4654 17.6806 63.9812 17.6756C62.2144 17.6568 61.1419 18.3277 60.0197 19.6248C59.3655 20.3808 59.1047 21.246 59.2374 22.2205" stroke="#756C7A" stroke-width="0.274416"/>
<path d="M59.2368 22.2211C59.5547 22.7626 60.0089 23.1189 60.5995 23.2899C60.6275 23.2978 60.6573 23.2967 60.6846 23.2867C60.7119 23.2768 60.7354 23.2585 60.7518 23.2344C61.1449 22.6523 61.4698 22.0204 61.7266 21.3385" stroke="#9E9C9C" stroke-width="0.274416"/>
<path d="M61.7272 21.3389C61.977 21.4325 62.0931 21.661 62.0756 22.0242C62.0355 22.9013 62.0069 23.7789 61.99 24.657C61.9876 24.7996 62.1601 26.0959 62.2759 26.0821C62.2861 26.0813 62.2957 26.0768 62.3029 26.0694C62.3101 26.0619 62.3145 26.052 62.3153 26.0415L62.4585 23.7417" stroke="#756C7A" stroke-width="0.274416"/>
<path d="M62.4581 23.7408C62.7286 22.961 63.1866 22.456 63.5255 21.5547C63.5361 21.5265 63.5557 21.5026 63.5814 21.4868C63.607 21.471 63.6372 21.4642 63.6671 21.4674C64.1871 21.5173 64.8358 21.697 65.3133 21.5987C65.5237 21.5561 65.7266 21.4845 65.9219 21.3838C65.9399 21.3749 65.9556 21.362 65.9679 21.3462C65.9803 21.3304 65.989 21.3119 65.9934 21.2923C65.9978 21.2726 65.9978 21.2521 65.9933 21.2324C65.9889 21.2126 65.9802 21.1941 65.9678 21.178C65.8254 20.9951 65.7498 20.7977 65.7412 20.586C65.7155 19.9378 65.6913 19.5031 65.6687 19.2819C65.6676 19.2733 65.6698 19.2647 65.6749 19.2577C65.6799 19.2507 65.6875 19.2458 65.6959 19.2441C65.7738 19.2252 65.9187 19.9306 65.9524 20.109" stroke="#9E9C9C" stroke-width="0.274416"/>
<path d="M65.9526 20.1096C65.7006 20.8817 66.4222 21.3139 66.8883 21.7696C66.9665 21.8459 67.0391 22.0459 67.1063 22.3695C67.1108 22.3921 67.121 22.4131 67.1359 22.4306C67.1509 22.4481 67.1701 22.4616 67.1918 22.4696C67.2135 22.4777 67.2369 22.4801 67.2599 22.4767C67.2828 22.4733 67.3046 22.4641 67.3231 22.4501L67.4905 22.3238C67.5151 22.305 67.5326 22.2787 67.5404 22.2489C67.5481 22.2191 67.5456 22.1877 67.5331 22.1598C67.3265 21.6897 66.5369 19.9916 66.8709 19.5594" stroke="#756C7A" stroke-width="0.274416"/>
<path d="M66.8709 19.5588C67.1958 19.3635 67.5358 19.3326 67.8907 19.4663" stroke="#9E9C9C" stroke-width="0.274416"/>
<path d="M67.8909 19.4662C68.9034 20.1014 68.1898 23.1573 68.7765 24.1265C68.7925 24.1531 68.809 24.1792 68.8259 24.2049C69.0032 24.4794 69.0871 24.4528 69.0775 24.1251L69.0477 23.0979" stroke="#756C7A" stroke-width="0.274416"/>
<path d="M69.048 23.0983C69.0107 21.417 68.8062 19.7588 68.4345 18.1237C68.3848 17.9077 68.3312 17.6128 68.2738 17.2392C68.2386 17.0131 68.1941 16.7867 68.1404 16.5601C68.0947 16.3702 68.0135 16.3536 67.8968 16.5103C67.6926 16.7834 67.4319 16.9927 67.1149 17.1383C67.0872 17.151 67.0646 17.1727 67.0506 17.1998C67.0366 17.227 67.032 17.2582 67.0374 17.2884C67.07 17.4614 67.1557 17.5926 67.2944 17.682C67.3222 17.6991 67.3427 17.7263 67.3518 17.7581C67.5191 18.3157 67.1033 17.8181 66.9551 17.9891" stroke="#9E9C9C" stroke-width="0.274416"/>
<path d="M66.9556 17.9897C66.7649 18.1752 66.8059 18.2282 67.0787 18.1485" stroke="#756C7A" stroke-width="0.274416"/>
<path d="M67.0769 18.1474C67.0019 18.3912 66.8893 18.4009 66.7391 18.1766C66.7249 18.1551 66.7049 18.1381 66.6813 18.1277C66.6578 18.1173 66.6318 18.1138 66.6063 18.1178C66.5013 18.133 66.4273 18.0958 66.3844 18.006C66.3733 17.9826 66.369 17.9565 66.3721 17.9307C66.3751 17.9049 66.3853 17.8805 66.4015 17.8603C66.5341 17.6971 66.6175 17.5121 66.6518 17.3054C66.6561 17.2814 66.6538 17.2567 66.6453 17.2339C66.6367 17.2111 66.6222 17.191 66.6032 17.1758C66.3241 16.9511 66.0919 16.684 65.9067 16.3744C65.903 16.3686 65.8978 16.3639 65.8916 16.3608C65.8854 16.3576 65.8784 16.3562 65.8714 16.3565L65.8331 16.3597C65.8273 16.3601 65.8217 16.3619 65.8168 16.3649C65.8119 16.368 65.8078 16.3722 65.8048 16.3771C65.8019 16.3821 65.8002 16.3877 65.7999 16.3935C65.7996 16.3992 65.8007 16.405 65.8032 16.4102C65.9559 16.7568 66.0188 17.1141 65.9917 17.4822" stroke="#9E9C9C" stroke-width="0.274416"/>
<path d="M67.0772 18.1482L66.9543 17.9895" stroke="#D6CFDD" stroke-width="0.274416"/>
<path d="M69.0477 23.0983C68.8265 22.4015 68.7051 21.8734 68.6834 21.514C68.63 20.6323 68.5493 19.7355 68.4416 18.8234C68.4087 18.5473 68.3237 18.5298 68.1866 18.7709C68.0699 18.9746 67.9714 19.2065 67.8909 19.4666" stroke="#D6CFDD" stroke-width="0.274416"/>
<path d="M66.871 19.5596C66.7147 19.4226 66.5394 19.3389 66.3451 19.3087C66.3244 19.3054 66.3033 19.307 66.2833 19.3131C66.2633 19.3193 66.245 19.33 66.2298 19.3444C66.2146 19.3587 66.2028 19.3763 66.1955 19.3959C66.1881 19.4155 66.1853 19.4365 66.1873 19.4573C66.213 19.7113 66.1348 19.9288 65.9528 20.1099" stroke="#D6CFDD" stroke-width="0.274416"/>
<path d="M62.4584 23.7413C62.3158 23.2405 62.3271 22.7634 62.4923 22.3098C62.7169 21.6903 63.3948 21.3608 63.9865 21.1659C65.0793 20.8049 64.9353 19.5384 65.4182 18.7789C65.672 18.3811 65.8633 17.9488 65.9919 17.4821" stroke="#D6CFDD" stroke-width="0.274416"/>
<path d="M61.7266 21.3385C61.196 21.7942 60.6553 22.1538 60.1045 22.4175C60.0749 22.4317 60.0416 22.4352 60.0103 22.4274L59.2368 22.2211" stroke="#D6CFDD" stroke-width="0.274416"/>
<path d="M67.0484 17.6028L66.9919 17.4879C66.9135 17.325 66.8318 17.3237 66.7468 17.484L66.5139 17.929C66.5084 17.9393 66.5057 17.9507 66.5058 17.9623C66.5059 17.9739 66.5088 17.9853 66.5144 17.9955C66.52 18.0056 66.5281 18.0142 66.5378 18.0205C66.5476 18.0268 66.5587 18.0306 66.5703 18.0315C66.6159 18.0353 66.6568 18.0115 66.6931 17.9602C66.7039 17.945 66.7178 17.9321 66.734 17.9223C66.7502 17.9125 66.7682 17.9061 66.7872 17.9034L67.1724 17.8547C67.2532 17.8451 67.2637 17.813 67.2038 17.7584L67.0797 17.6447C67.0663 17.6334 67.0559 17.6194 67.0484 17.6028Z" stroke="#756C7A" stroke-width="0.274416"/>
<path d="M61.5746 22.1195L61.4631 22.3005" stroke="#756C7A" stroke-width="0.274416"/>
<path d="M61.4629 22.3C61.0388 22.9848 60.7184 23.6476 60.2348 24.3546C59.9228 24.8091 59.5443 25.3669 59.4625 25.921C59.4437 26.0421 59.43 26.1626 59.4213 26.2825C59.3991 26.5762 59.4667 26.5981 59.6239 26.3481L59.912 25.8896" stroke="#9E9C9C" stroke-width="0.274416"/>
<path d="M59.9124 25.8903C60.2605 25.7806 60.4663 25.6681 60.5299 25.5528C60.8526 24.9597 61.2721 24.433 61.7884 23.9726" stroke="#756C7A" stroke-width="0.274416"/>
<path d="M61.7881 23.9721C61.8861 23.217 62.0126 22.3424 61.8927 21.5912C61.8915 21.5839 61.8875 21.5774 61.8815 21.5729C61.8756 21.5685 61.8682 21.5665 61.8608 21.5674L61.82 21.5723C61.8096 21.5736 61.8 21.5783 61.7928 21.5857C61.7856 21.5932 61.7813 21.6027 61.7806 21.6129C61.7635 21.8019 61.6947 21.9709 61.5743 22.1197" stroke="#9E9C9C" stroke-width="0.274416"/>
<path d="M61.7881 23.972C61.363 23.3041 61.8684 22.8141 61.5743 22.1196" stroke="#D6CFDD" stroke-width="0.274416"/>
<path d="M59.912 25.8894C60.0171 25.3177 60.2259 24.7935 60.5385 24.3169C60.6613 24.1295 61.5982 22.368 61.463 22.2998" stroke="#D6CFDD" stroke-width="0.274416"/>
<path d="M61.7433 5.51752C61.8295 5.71544 61.7894 5.84688 61.6231 5.91184C61.5266 5.69764 61.388 5.51656 61.2074 5.36859C61.0962 5.16997 60.9417 5.0175 60.7438 4.91118L60.5723 4.72435C60.3929 4.52465 60.1721 4.37271 59.91 4.26852C59.5592 4.30849 59.3522 4.52338 59.2891 4.9132C59.1941 5.50026 59.1547 6.03096 59.1706 6.50531C59.053 7.06376 59.0276 7.65128 59.0946 8.26786L58.8783 10.0582C58.8002 10.2462 58.7644 10.4513 58.7706 10.6735L58.5874 11.4553L58.4856 11.8073L58.0082 12.8564C57.8323 13.0422 57.7161 13.2619 57.6597 13.5155C57.0364 14.4686 56.5595 15.3872 56.2291 16.2713C55.3789 18.5407 56.129 21.2287 58.2664 22.5257C58.8552 22.883 59.4696 23.1875 60.1094 23.4392C60.1799 23.4667 60.2435 23.4706 60.3001 23.451C60.4203 23.4081 60.4205 23.3639 60.3009 23.3183C59.7051 23.0963 59.2873 22.6818 59.0473 22.0748C58.9266 21.3292 58.7294 20.5319 58.8033 19.8073C59.044 17.4324 60.471 15.0985 61.7859 13.2615C62.8556 11.7675 63.6753 10.6569 63.7885 8.88166C63.9069 8.53039 63.9633 8.15703 63.9576 7.7616C63.9555 7.68171 63.9855 7.66662 64.0476 7.71633L64.0872 7.74754C64.1034 7.76054 64.1236 7.76731 64.1444 7.76662C64.1651 7.76593 64.1848 7.75781 64.2001 7.74376C64.5585 7.42331 64.8016 7.39986 64.7257 6.82027L64.7094 6.68403L64.83 5.98014C64.8627 5.79017 64.8037 5.75529 64.6531 5.87548L64.2898 6.16612C64.1074 6.20444 63.9423 6.20292 63.7946 6.16157C63.7615 6.15216 63.7332 6.13031 63.7155 6.10053L63.3849 5.55266C63.3749 5.53655 63.3617 5.52265 63.3462 5.51183C63.3306 5.50101 63.313 5.4935 63.2944 5.48976C63.2759 5.48601 63.2567 5.48612 63.2382 5.49007C63.2196 5.49402 63.2021 5.50173 63.1867 5.51272C63.0119 5.63856 62.8958 5.80025 62.8382 5.99779C62.5467 6.10254 62.3998 6.02931 62.3975 5.7781C62.3947 5.47628 62.3936 5.16137 62.3941 4.83336C62.3946 4.64446 62.3309 4.61981 62.2029 4.75942C62.1614 4.80582 62.1337 4.87084 62.1197 4.95449C61.7402 5.07434 62.0261 5.43269 61.7433 5.51752C61.8014 5.04632 61.956 4.70547 62.2073 4.49498C62.7337 4.05364 62.5746 5.50137 62.5584 5.6553C62.5575 5.66293 62.5582 5.67066 62.5605 5.67801C62.5628 5.68536 62.5667 5.69218 62.5718 5.69804C62.5769 5.70391 62.5831 5.7087 62.5902 5.71211C62.5973 5.71553 62.605 5.7175 62.6128 5.7179L62.6475 5.71929C62.6641 5.71943 62.6804 5.71499 62.6945 5.70647C62.7087 5.69795 62.7201 5.68569 62.7274 5.67108C62.9918 5.15318 63.4507 5.15378 63.7169 5.73003C63.8201 5.95448 63.9597 6.00878 64.1357 5.89293L64.7553 5.48055C65.0285 5.29968 65.1384 5.38654 65.0848 5.74113C64.9903 6.3742 65.1001 7.70145 64.362 7.88475C64.3376 7.89058 64.3153 7.90303 64.2974 7.92074C64.2796 7.93846 64.2668 7.96077 64.2606 7.98526C64.0406 8.89859 63.9363 9.93631 63.6304 10.7203C63.3714 11.384 63.044 11.9762 62.6482 12.4969C60.8195 14.9036 58.7599 17.8545 58.925 21.0143C58.9273 21.0564 58.9454 21.0769 58.9793 21.0756C58.9914 21.0749 59.0029 21.0706 59.0122 21.0633C59.0215 21.056 59.0281 21.046 59.0311 21.0349C59.5235 19.3346 61.2744 17.7704 62.9764 17.4889C63.7218 17.3669 64.7372 17.4808 65.6494 17.2159C65.6672 17.2105 65.6838 17.2015 65.6981 17.1896C65.7124 17.1777 65.7241 17.1631 65.7326 17.1466C65.7411 17.1301 65.7461 17.1121 65.7475 17.0936C65.7488 17.0752 65.7463 17.0567 65.7403 17.0393C65.5314 16.423 65.5051 15.7998 65.6612 15.1695C65.6664 15.1484 65.6664 15.1263 65.6612 15.1051C65.656 15.0838 65.6458 15.064 65.6314 15.0473C65.1332 14.4724 64.9837 13.8214 64.6878 13.1465C64.6045 12.9583 64.662 12.8529 64.8601 12.8302C65.5377 12.7536 65.5139 11.6953 65.6169 11.1565C65.6208 11.1368 65.6299 11.1185 65.6431 11.1036C65.6564 11.0886 65.6734 11.0775 65.6924 11.0715C65.7715 11.0474 65.8259 11.0938 65.8555 11.211C65.9777 11.6801 66.1782 12.1145 66.4571 12.5142C66.4774 12.5436 66.5086 12.5642 66.5441 12.5715L67.2538 12.7067C67.2768 12.7111 67.3005 12.7096 67.3229 12.7024C67.3452 12.6951 67.3654 12.6823 67.3815 12.6652C67.9078 12.0875 68.391 11.4772 68.8312 10.8343C69.0006 10.5866 69.0672 10.6118 69.0309 10.91C68.9574 11.5074 68.9621 12.107 69.0449 12.7088C69.0479 12.7338 69.0442 12.759 69.0343 12.7819C68.8027 13.3083 68.3418 13.9864 68.3294 14.5544C68.3022 15.8105 68.3496 16.7339 68.4715 17.3246C68.938 19.5807 69.3071 21.9245 69.2713 24.2335C69.262 24.8855 69.367 25.5583 69.3594 26.2363C69.3591 26.2593 69.3531 26.2818 69.3419 26.3019C69.3307 26.3219 69.3146 26.3388 69.2952 26.351C69.2757 26.3632 69.2535 26.3704 69.2306 26.3718C69.2077 26.3732 69.1848 26.3688 69.164 26.3591C68.6282 26.1065 68.3034 23.0569 68.2967 22.8035C68.2636 21.5279 68.2266 20.7382 68.1858 20.4345C68.0931 19.7574 67.7565 19.511 67.176 19.6953C66.971 19.7603 66.9085 19.893 66.9886 20.0935C67.3384 20.9652 67.9929 22.3878 67.6543 23.2794C67.6458 23.3012 67.632 23.3205 67.6143 23.3357C67.5966 23.3508 67.5754 23.3613 67.5527 23.3661C67.0696 23.4637 66.9724 23.0884 66.9467 22.6755C66.917 22.2102 66.7157 21.8312 66.3428 21.5385C66.3226 21.5226 66.2983 21.5129 66.2725 21.5103C66.2468 21.5077 66.2207 21.5125 66.1973 21.524C65.7758 21.7318 65.3798 21.9337 64.8867 21.8432C64.5239 21.775 64.159 21.7347 63.7918 21.7222C63.7661 21.7211 63.7407 21.7273 63.7185 21.74C63.6962 21.7526 63.6781 21.7713 63.6663 21.7938C63.2915 22.499 62.6898 23.3749 62.6371 24.1729C62.5817 25.0224 62.5246 25.8726 62.4657 26.7234C62.4631 26.7541 62.4711 26.7848 62.4885 26.8105L62.7659 27.2141C62.7788 27.2334 62.7868 27.2556 62.789 27.2787C62.7913 27.3018 62.7878 27.3251 62.779 27.3466C62.489 28.0209 62.0008 27.7046 61.868 27.1926C61.7484 26.7306 61.6985 26.3814 61.7183 26.1451C61.767 25.5718 61.8044 24.9971 61.8306 24.421C61.8415 24.2033 61.7773 24.1782 61.6379 24.3459C61.1857 24.888 60.7706 25.4593 60.3927 26.0598C60.0373 26.6259 60.0435 27.211 60.1403 27.8379C60.1443 27.8644 60.1404 27.8918 60.1289 27.9166C60.0355 28.1221 59.8826 28.2191 59.6703 28.2076C59.6455 28.2063 59.6215 28.1983 59.6008 28.1845C59.5802 28.1706 59.5637 28.1514 59.5531 28.1289C59.0252 26.9915 59.0791 25.8976 59.7148 24.8473C59.9388 24.4779 60.1803 24.112 60.4393 23.7495C60.6374 23.4716 60.5892 23.4189 60.2947 23.5912L60.2211 23.6345C60.2036 23.6444 60.1841 23.6504 60.164 23.6521C60.1439 23.6538 60.1237 23.6511 60.1048 23.6442C58.2361 22.9674 56.7438 22.0743 56.0207 20.1113C54.9663 17.2468 56.5357 14.8668 57.9078 12.4662C58.4349 11.5439 58.6801 10.1343 58.752 9.06867C58.8374 7.80568 58.9255 6.54327 59.0165 5.28145C59.1992 2.74482 61.0517 4.73494 61.6168 5.48838C61.6262 5.50072 61.6387 5.5104 61.653 5.51645C61.6673 5.5225 61.6829 5.52472 61.6983 5.52288L61.7433 5.51752ZM67.6082 12.7004C67.3652 12.9573 67.2846 12.826 67.0336 12.7951C66.5008 12.7305 65.9722 12.7544 65.4476 12.8666C65.2077 12.9182 65.1953 13.0031 65.4102 13.1212L65.7473 13.3062C65.7691 13.3183 65.7939 13.3239 65.8188 13.3227C65.8438 13.3214 65.868 13.3132 65.8887 13.2991C66.1566 13.1197 66.3818 13.1652 66.5641 13.4355C66.5775 13.4551 66.5852 13.4768 66.5871 13.5005C66.6004 13.6592 66.638 13.7616 66.6997 13.8076C67.3793 14.3236 67.8382 14.9709 68.0766 15.7494C68.0977 15.8188 68.1294 15.8449 68.1716 15.8279C68.1804 15.8244 68.188 15.8183 68.1932 15.8105C68.1985 15.8027 68.2012 15.7936 68.2009 15.7843L68.1525 14.3572C68.4353 13.7045 68.7767 12.9978 68.7708 12.2758C68.7686 11.9942 68.7843 11.7205 68.8181 11.4549C68.8522 11.1846 68.7868 11.1578 68.622 11.3746L67.6082 12.7004ZM65.6881 11.6731C65.6581 11.9088 65.6083 12.1441 65.5387 12.3791C65.5319 12.4014 65.531 12.425 65.5359 12.4478C65.5408 12.4706 65.5515 12.4917 65.5668 12.5092C65.5822 12.5268 65.6018 12.5401 65.6237 12.548C65.6456 12.5558 65.6692 12.558 65.6922 12.5542L65.943 12.5133C65.9647 12.5097 65.9852 12.5009 66.0029 12.4877C66.0205 12.4745 66.0347 12.4573 66.0443 12.4375C66.0538 12.4176 66.0585 12.3958 66.0578 12.3737C66.0571 12.3517 66.0512 12.3302 66.0404 12.311C65.9258 12.1063 65.832 11.8992 65.7591 11.6895C65.723 11.587 65.6993 11.5815 65.6881 11.6731ZM66.1205 15.4063L66.0753 15.3744C66.0558 15.3607 66.0332 15.3524 66.0095 15.3501C65.9859 15.3478 65.9621 15.3517 65.9404 15.3614C65.9187 15.371 65.8999 15.3862 65.8858 15.4053C65.8718 15.4245 65.8629 15.4469 65.8601 15.4705C65.8267 15.7545 65.8422 15.9774 65.9066 16.1393C66.0538 16.5086 66.3357 16.8329 66.7521 17.1122C66.7699 17.1238 66.7901 17.1312 66.8113 17.1337C66.8324 17.1362 66.8539 17.1338 66.8741 17.1266C67.3869 16.9467 67.7635 16.6167 68.0039 16.1367C68.012 16.1205 68.0168 16.1027 68.0179 16.0846C68.0191 16.0664 68.0166 16.0481 68.0106 16.0309C67.5251 14.6005 66.6766 13.9735 65.3759 13.3325C65.0559 13.1745 64.9535 13.2931 65.0688 13.6883C65.2339 14.2545 65.5373 14.7292 65.9791 15.1123C66.0653 15.1867 66.1373 15.2569 66.1949 15.3228C66.406 15.5639 66.3812 15.5917 66.1205 15.4063ZM65.992 17.4819C65.8456 17.2349 65.6741 17.2181 65.4775 17.4313C65.4605 17.4487 65.4393 17.4617 65.4156 17.469C64.9435 17.6119 64.4653 17.6808 63.9811 17.6759C62.2143 17.6571 61.1419 18.3279 60.0197 19.6251C59.3654 20.381 59.1047 21.2463 59.2374 22.2207C59.5552 22.7623 60.0095 23.1185 60.6001 23.2895C60.628 23.2974 60.6578 23.2963 60.6852 23.2864C60.7125 23.2764 60.736 23.2581 60.7524 23.2341C61.1454 22.652 61.4704 22.02 61.7272 21.3382C61.977 21.4318 62.0931 21.6603 62.0755 22.0235C62.0354 22.9006 62.0069 23.7782 61.99 24.6563C61.9876 24.7989 62.16 26.0952 62.2758 26.0814C62.286 26.0806 62.2956 26.0761 62.3029 26.0687C62.3101 26.0612 62.3145 26.0513 62.3152 26.0408L62.4585 23.741C62.729 22.9612 63.1869 22.4562 63.5259 21.5549C63.5364 21.5267 63.5561 21.5029 63.5817 21.487C63.6074 21.4712 63.6375 21.4644 63.6675 21.4676C64.1874 21.5175 64.8362 21.6973 65.3136 21.5989C65.5241 21.5563 65.727 21.4847 65.9223 21.3841C65.9402 21.3751 65.9559 21.3622 65.9683 21.3464C65.9806 21.3306 65.9893 21.3122 65.9937 21.2925C65.9981 21.2728 65.9981 21.2523 65.9937 21.2326C65.9893 21.2128 65.9806 21.1943 65.9682 21.1782C65.8257 20.9953 65.7502 20.798 65.7415 20.5862C65.7158 19.938 65.6917 19.5033 65.669 19.2821C65.668 19.2736 65.6702 19.2649 65.6752 19.2579C65.6803 19.2509 65.6878 19.246 65.6963 19.2443C65.7742 19.2254 65.919 19.9308 65.9527 20.1092C65.7007 20.8812 66.4223 21.3134 66.8884 21.7691C66.9666 21.8455 67.0393 22.0455 67.1064 22.3691C67.1109 22.3917 67.1211 22.4127 67.1361 22.4302C67.151 22.4477 67.1702 22.4611 67.1919 22.4692C67.2136 22.4772 67.237 22.4796 67.26 22.4762C67.283 22.4728 67.3047 22.4637 67.3232 22.4497L67.4906 22.3233C67.5152 22.3046 67.5328 22.2782 67.5405 22.2485C67.5482 22.2187 67.5457 22.1873 67.5332 22.1593C67.3266 21.6893 66.537 19.9912 66.871 19.559C67.1959 19.3636 67.5359 19.3328 67.8908 19.4665C68.9033 20.1016 68.1897 23.1575 68.7764 24.1267C68.7924 24.1534 68.8089 24.1795 68.8258 24.2051C69.0031 24.4797 69.087 24.4531 69.0774 24.1254L69.0476 23.0981C69.0103 21.4168 68.8058 19.7586 68.4341 18.1236C68.3844 17.9075 68.3308 17.6126 68.2734 17.239C68.2382 17.0129 68.1937 16.7865 68.14 16.5599C68.0943 16.37 68.0131 16.3534 67.8964 16.5101C67.6922 16.7832 67.4315 16.9925 67.1145 17.1381C67.0868 17.1508 67.0642 17.1725 67.0502 17.1996C67.0362 17.2268 67.0316 17.258 67.037 17.2882C67.0696 17.4612 67.1553 17.5924 67.294 17.6818C67.3218 17.6989 67.3423 17.7261 67.3514 17.7579C67.5187 18.3155 67.1029 17.8179 66.9547 17.9889C66.7649 18.1737 66.8057 18.2264 67.0772 18.1471C67.0022 18.3909 66.8896 18.4007 66.7394 18.1763C66.7252 18.1548 66.7052 18.1378 66.6816 18.1274C66.6581 18.117 66.6321 18.1135 66.6066 18.1175C66.5016 18.1328 66.4276 18.0955 66.3847 18.0058C66.3736 17.9823 66.3693 17.9562 66.3724 17.9304C66.3754 17.9046 66.3856 17.8802 66.4019 17.86C66.5344 17.6968 66.6178 17.5118 66.6522 17.3051C66.6564 17.2811 66.6542 17.2564 66.6456 17.2336C66.6371 17.2108 66.6225 17.1907 66.6035 17.1755C66.3244 16.9508 66.0922 16.6837 65.907 16.3741C65.9033 16.3683 65.8981 16.3636 65.8919 16.3605C65.8857 16.3573 65.8787 16.3559 65.8717 16.3562L65.8334 16.3594C65.8276 16.3598 65.822 16.3616 65.8171 16.3646C65.8122 16.3677 65.8081 16.3719 65.8052 16.3768C65.8022 16.3818 65.8005 16.3874 65.8002 16.3932C65.7999 16.399 65.801 16.4047 65.8035 16.41C65.9562 16.7565 66.0191 17.1138 65.992 17.4819ZM67.0482 17.602L66.9917 17.4871C66.9133 17.3242 66.8316 17.3229 66.7466 17.4831L66.5136 17.9282C66.5082 17.9385 66.5054 17.9499 66.5055 17.9615C66.5056 17.9731 66.5086 17.9845 66.5142 17.9946C66.5198 18.0048 66.5278 18.0134 66.5376 18.0197C66.5473 18.026 66.5585 18.0297 66.57 18.0306C66.6156 18.0344 66.6566 18.0107 66.6928 17.9594C66.7036 17.9441 66.7176 17.9312 66.7337 17.9215C66.7499 17.9117 66.768 17.9053 66.7869 17.9025L67.1722 17.8539C67.253 17.8442 67.2635 17.8121 67.2035 17.7576L67.0794 17.6438C67.0661 17.6325 67.0557 17.6186 67.0482 17.602ZM61.5743 22.1191L61.4632 22.2996C61.039 22.9843 60.7187 23.6471 60.235 24.3542C59.923 24.8086 59.5445 25.3664 59.4627 25.9206C59.444 26.0416 59.4302 26.1621 59.4215 26.282C59.3994 26.5757 59.4669 26.5976 59.6241 26.3476L59.9122 25.8891C60.2602 25.7795 60.4661 25.667 60.5297 25.5516C60.8524 24.9586 61.2719 24.4319 61.7881 23.9715C61.8861 23.2164 62.0126 22.3419 61.8927 21.5906C61.8915 21.5833 61.8875 21.5768 61.8815 21.5723C61.8756 21.5679 61.8682 21.5659 61.8608 21.5668L61.82 21.5717C61.8096 21.573 61.8 21.5778 61.7928 21.5852C61.7856 21.5926 61.7813 21.6022 61.7806 21.6123C61.7635 21.8013 61.6947 21.9703 61.5743 22.1191Z" fill="#080808"/>
<path d="M59.9103 4.26871C59.4183 5.48897 59.4449 5.58483 59.9902 4.55628C60.0021 4.53275 60.0166 4.51536 60.0337 4.50411C60.0567 4.48847 60.0782 4.47901 60.098 4.47572C60.1059 4.47439 60.1139 4.47515 60.1214 4.47791C60.1288 4.48068 60.1354 4.48535 60.1405 4.49147C60.1455 4.49759 60.1489 4.50493 60.1502 4.51276C60.1516 4.52059 60.1508 4.52863 60.1481 4.53608C59.8859 5.2269 59.5601 5.88338 59.1709 6.5055C59.1549 6.03115 59.1944 5.50045 59.2893 4.91339C59.3525 4.52357 59.5595 4.30868 59.9103 4.26871Z" fill="white"/>
<path d="M59.9101 4.26873C60.1722 4.37291 60.3929 4.52486 60.5724 4.72455L59.0947 8.26806C59.0277 7.65148 59.053 7.06397 59.1707 6.50552C59.5599 5.88339 59.8857 5.22692 60.1479 4.5361C60.1506 4.52865 60.1514 4.5206 60.15 4.51277C60.1487 4.50494 60.1453 4.4976 60.1403 4.49148C60.1352 4.48537 60.1286 4.48069 60.1212 4.47793C60.1137 4.47516 60.1057 4.47441 60.0978 4.47573C60.078 4.47902 60.0565 4.48849 60.0335 4.50413C60.0164 4.51537 60.0019 4.53276 59.99 4.55629C59.4447 5.58484 59.4181 5.48899 59.9101 4.26873Z" fill="#080808"/>
<path d="M60.5722 4.72506L60.7437 4.9119C60.271 6.03957 59.8736 7.07214 59.5514 8.00962C59.3175 8.69062 59.3838 8.72095 59.7502 8.10062C60.2761 7.21072 60.7618 6.30028 61.2072 5.3693C61.3879 5.51727 61.5265 5.69836 61.6229 5.91255C60.9358 7.32372 60.0182 9.08568 58.8781 10.0589L59.0945 8.26857L60.5722 4.72506Z" fill="white"/>
<path d="M62.8387 5.99853C62.4787 6.85024 62.0652 7.67469 61.5983 8.4719C61.4343 8.75029 61.4862 8.79892 61.7538 8.61779C62.7376 7.95245 63.5831 7.13547 64.2903 6.16685L64.6536 5.87622C64.8042 5.75602 64.8632 5.79091 64.8305 5.98088L64.7099 6.68477C64.6376 6.6814 64.5845 6.6997 64.5506 6.73967C63.3056 8.17724 62.2891 8.84279 60.5442 9.85355C60.065 10.1308 59.4129 10.665 58.5878 11.456L58.771 10.6742C60.2027 9.65519 61.2523 8.33257 61.9199 6.70634C62.0684 6.34503 62.1352 5.76133 62.1202 4.95523C62.1342 4.87158 62.1619 4.80655 62.2034 4.76016C62.3313 4.62055 62.3951 4.64519 62.3946 4.8341C62.394 5.16211 62.3952 5.47702 62.398 5.77884C62.4003 6.03005 62.5472 6.10328 62.8387 5.99853Z" fill="white"/>
<path d="M60.7441 4.91167C60.942 5.01798 61.0965 5.17045 61.2077 5.36908C60.7622 6.30005 60.2765 7.21049 59.7506 8.10039C59.3842 8.72072 59.318 8.69039 59.5519 8.00939C59.874 7.07192 60.2715 6.03934 60.7441 4.91167Z" fill="#080808"/>
<path d="M62.1197 4.95505C62.1347 5.76115 62.068 6.34485 61.9194 6.70616C61.2519 8.33238 60.2023 9.65501 58.7706 10.674C58.7644 10.4518 58.8003 10.2468 58.8783 10.0587C60.0183 9.08552 60.9359 7.32356 61.6231 5.9124C61.7894 5.84743 61.8295 5.71599 61.7433 5.51808C62.0261 5.43325 61.7402 5.07489 62.1197 4.95505Z" fill="#080808"/>
<path d="M64.2901 6.16674C63.5829 7.13536 62.7375 7.95234 61.7537 8.61768C61.486 8.79881 61.4342 8.75018 61.5981 8.47178C62.0651 7.67458 62.4785 6.85013 62.8386 5.99842C62.8961 5.80088 63.0122 5.63919 63.187 5.51334C63.2024 5.50235 63.22 5.49464 63.2385 5.49069C63.257 5.48674 63.2762 5.48664 63.2948 5.49038C63.3133 5.49412 63.3309 5.50164 63.3465 5.51246C63.3621 5.52328 63.3752 5.53717 63.3852 5.55329L63.7158 6.10115C63.7335 6.13094 63.7618 6.15278 63.7949 6.16219C63.9426 6.20355 64.1077 6.20506 64.2901 6.16674Z" fill="#080808"/>
<path d="M64.7096 6.68494L64.7259 6.82118C64.5634 7.03491 64.3817 7.23021 64.1808 7.40707C64.0458 7.52633 63.931 7.66897 63.8366 7.83499C63.5899 8.26925 62.9014 8.77688 62.4736 9.03651C61.0871 9.87789 59.7578 10.8018 58.4858 11.8082L58.5876 11.4562C59.4127 10.6651 60.0648 10.131 60.5439 9.85372C62.2889 8.84296 63.3053 8.17741 64.5504 6.73984C64.5843 6.69987 64.6374 6.68157 64.7096 6.68494Z" fill="#080808"/>
<path d="M64.726 6.82102C64.8019 7.40061 64.5588 7.42406 64.2004 7.74451C64.1852 7.75856 64.1654 7.76668 64.1447 7.76737C64.124 7.76806 64.1037 7.76129 64.0875 7.74829L64.0479 7.71708C63.9858 7.66737 63.9558 7.68246 63.9579 7.76235C63.9636 8.15778 63.9072 8.53114 63.7888 8.88241C61.6057 10.1126 59.582 11.1842 58.0085 12.8571L58.4859 11.8081C59.7579 10.8016 61.0872 9.87774 62.4737 9.03635C62.9015 8.77672 63.59 8.26909 63.8367 7.83483C63.9311 7.66882 64.0459 7.52618 64.1809 7.40691C64.3818 7.23005 64.5635 7.03476 64.726 6.82102Z" fill="white"/>
<path d="M63.7885 8.88271C63.6753 10.658 62.8556 11.7685 61.7859 13.2626C60.471 15.0995 59.044 17.4334 58.8033 19.8084C58.7294 20.533 58.9266 21.3303 59.0473 22.0759C56.8155 20.7873 56.571 17.2169 57.2139 14.993C57.3567 14.4988 57.5053 14.0066 57.6597 13.5166C57.7161 13.263 57.8322 13.0433 58.0082 12.8574C59.5816 11.1845 61.6054 10.1129 63.7885 8.88271Z" fill="#080808"/>
<path d="M68.153 14.3578L68.039 13.447C68.0343 13.4153 68.0191 13.386 67.9959 13.3637C67.7993 13.1826 67.6702 12.9617 67.6087 12.701L68.6225 11.3752C68.7874 11.1585 68.8527 11.1852 68.8186 11.4555C68.7849 11.7212 68.7691 11.9948 68.7714 12.2764C68.7773 12.9984 68.4359 13.7051 68.153 14.3578Z" fill="white"/>
<path d="M65.6882 11.6737C65.6994 11.5821 65.7231 11.5876 65.7592 11.6901C65.8321 11.8998 65.9259 12.1069 66.0405 12.3116C66.0513 12.3308 66.0572 12.3523 66.0579 12.3743C66.0586 12.3964 66.0539 12.4182 66.0444 12.438C66.0348 12.4579 66.0206 12.4751 66.003 12.4883C65.9853 12.5015 65.9648 12.5103 65.9431 12.5139L65.6923 12.5548C65.6693 12.5586 65.6457 12.5564 65.6238 12.5486C65.6019 12.5407 65.5823 12.5274 65.5669 12.5098C65.5516 12.4923 65.5409 12.4712 65.536 12.4484C65.5311 12.4256 65.532 12.402 65.5388 12.3796C65.6084 12.1447 65.6582 11.9094 65.6882 11.6737Z" fill="white"/>
<path d="M57.6602 13.5163C57.5058 14.0064 57.3571 14.4985 57.2143 14.9927C56.5715 17.2166 56.8159 20.787 59.0477 22.0756C59.2877 22.6826 59.7055 23.0971 60.3013 23.319C60.421 23.3646 60.4207 23.4089 60.3005 23.4518C60.2439 23.4714 60.1803 23.4675 60.1098 23.44C59.47 23.1883 58.8557 22.8838 58.2668 22.5265C56.1294 21.2295 55.3793 18.5415 56.2295 16.2721C56.5599 15.388 57.0368 14.4694 57.6602 13.5163Z" fill="white"/>
<path d="M67.6082 12.7C67.6697 12.9608 67.7987 13.1817 67.9953 13.3627C68.0186 13.385 68.0338 13.4143 68.0384 13.446L68.1525 14.3569L68.201 15.784C68.2012 15.7933 68.1985 15.8024 68.1933 15.8102C68.188 15.818 68.1805 15.824 68.1716 15.8276C68.1294 15.8446 68.0978 15.8184 68.0766 15.7491C67.8383 14.9705 67.3793 14.3233 66.6997 13.8073C66.638 13.7612 66.6005 13.6588 66.5871 13.5002C66.5852 13.4764 66.5775 13.4548 66.5642 13.4352C66.3818 13.1649 66.1567 13.1194 65.8888 13.2987C65.868 13.3129 65.8438 13.3211 65.8189 13.3223C65.7939 13.3236 65.7691 13.3179 65.7473 13.3059L65.4102 13.1208C65.1953 13.0027 65.2078 12.9179 65.4476 12.8663C65.9722 12.754 66.5009 12.7302 67.0336 12.7947C67.2847 12.8256 67.3653 12.957 67.6082 12.7Z" fill="#080808"/>
<path d="M66.1954 15.3235C66.1378 15.2576 66.0658 15.1874 65.9796 15.113C65.5378 14.7299 65.2344 14.2552 65.0693 13.689C64.954 13.2938 65.0564 13.1752 65.3765 13.3332C66.6771 13.9741 67.5256 14.6012 68.0111 16.0316C68.0171 16.0488 68.0196 16.0671 68.0184 16.0853C68.0173 16.1034 68.0125 16.1212 68.0044 16.1374C67.7641 16.6174 67.3875 16.9474 66.8746 17.1273C66.8545 17.1345 66.8329 17.1369 66.8118 17.1344C66.7906 17.1319 66.7704 17.1245 66.7527 17.1129C66.3362 16.8336 66.0543 16.5093 65.9071 16.14C65.8427 15.9781 65.8272 15.7552 65.8606 15.4712C65.8634 15.4476 65.8723 15.4252 65.8864 15.406C65.9004 15.3869 65.9192 15.3717 65.9409 15.3621C65.9626 15.3524 65.9864 15.3485 66.0101 15.3508C66.0337 15.353 66.0563 15.3614 66.0758 15.3751L66.121 15.407C66.3817 15.5924 66.4065 15.5646 66.1954 15.3235Z" fill="white"/>
<path d="M67.0774 18.1471L66.955 17.989C67.1031 17.8179 67.519 18.3156 67.3516 17.7579C67.3425 17.7261 67.322 17.699 67.2942 17.6819C67.1555 17.5925 67.0699 17.4613 67.0373 17.2883C67.0318 17.258 67.0364 17.2269 67.0504 17.1997C67.0644 17.1725 67.0871 17.1508 67.1147 17.1381C67.4318 16.9925 67.6924 16.7832 67.8966 16.5102C68.0133 16.3535 68.0945 16.3701 68.1402 16.5599C68.1939 16.7866 68.2384 17.0129 68.2736 17.239C68.331 17.6127 68.3846 17.9075 68.4343 18.1236C68.806 19.7586 69.0105 21.4168 69.0478 23.0982C68.8266 22.4014 68.7052 21.8733 68.6835 21.5138C68.6301 20.6322 68.5494 19.7353 68.4417 18.8233C68.4088 18.5472 68.3238 18.5296 68.1867 18.7708C68.07 18.9744 67.9715 19.2063 67.891 19.4665C67.5361 19.3328 67.1961 19.3637 66.8712 19.559C66.7149 19.4219 66.5395 19.3383 66.3452 19.308C66.3246 19.3048 66.3034 19.3063 66.2835 19.3125C66.2635 19.3187 66.2452 19.3294 66.2299 19.3437C66.2147 19.3581 66.203 19.3757 66.1956 19.3953C66.1883 19.4149 66.1855 19.4359 66.1875 19.4567C66.2131 19.7106 66.135 19.9282 65.9529 20.1092C65.9193 19.9308 65.7744 19.2254 65.6965 19.2444C65.688 19.2461 65.6805 19.2509 65.6755 19.2579C65.6704 19.2649 65.6682 19.2736 65.6692 19.2822C65.6919 19.5033 65.7161 19.938 65.7417 20.5862C65.7504 20.798 65.8259 20.9953 65.9684 21.1782C65.9808 21.1943 65.9895 21.2129 65.9939 21.2326C65.9983 21.2524 65.9983 21.2728 65.9939 21.2925C65.9896 21.3122 65.9809 21.3306 65.9685 21.3464C65.9561 21.3623 65.9404 21.3751 65.9225 21.3841C65.7272 21.4847 65.5243 21.5564 65.3138 21.5989C64.8364 21.6973 64.1877 21.5176 63.6677 21.4676C63.6377 21.4644 63.6076 21.4713 63.5819 21.4871C63.5563 21.5029 63.5367 21.5268 63.5261 21.555C63.1872 22.4562 62.7292 22.9612 62.4587 23.741C62.3161 23.2403 62.3274 22.7632 62.4926 22.3096C62.7173 21.69 63.3951 21.3605 63.9868 21.1657C65.0796 20.8047 64.9356 19.5382 65.4185 18.7787C65.6724 18.3809 65.8636 17.9486 65.9922 17.4819C66.0193 17.1139 65.9564 16.7566 65.8037 16.41C65.8013 16.4047 65.8002 16.399 65.8004 16.3932C65.8007 16.3874 65.8024 16.3818 65.8054 16.3769C65.8083 16.3719 65.8124 16.3677 65.8173 16.3647C65.8222 16.3616 65.8278 16.3598 65.8336 16.3594L65.8719 16.3563C65.879 16.3559 65.8859 16.3574 65.8921 16.3605C65.8984 16.3636 65.9035 16.3684 65.9072 16.3742C66.0924 16.6837 66.3246 16.9508 66.6038 17.1755C66.6227 17.1908 66.6373 17.2108 66.6458 17.2336C66.6544 17.2565 66.6566 17.2811 66.6524 17.3051C66.6181 17.5119 66.5346 17.6968 66.4021 17.86C66.3858 17.8803 66.3756 17.9047 66.3726 17.9304C66.3696 17.9562 66.3738 17.9823 66.3849 18.0058C66.4278 18.0955 66.5018 18.1328 66.6069 18.1175C66.6323 18.1136 66.6583 18.117 66.6819 18.1274C66.7054 18.1379 66.7254 18.1548 66.7396 18.1763C66.8898 18.4007 67.0024 18.3909 67.0774 18.1471Z" fill="white"/>
<path d="M65.9926 17.4817C65.8639 17.9484 65.6727 18.3807 65.4189 18.7785C64.9359 19.538 65.08 20.8045 63.9872 21.1655C63.3955 21.3603 62.7176 21.6899 62.493 22.3094C62.3278 22.763 62.3165 23.2401 62.459 23.7408L62.3158 26.0406C62.315 26.0511 62.3107 26.061 62.3034 26.0685C62.2962 26.076 62.2866 26.0805 62.2764 26.0812C62.1606 26.095 61.9882 24.7987 61.9905 24.6561C62.0075 23.7781 62.036 22.9005 62.0761 22.0233C62.0936 21.6601 61.9775 21.4317 61.7278 21.338C61.1971 21.7937 60.6564 22.1533 60.1056 22.417C60.076 22.4312 60.0427 22.4347 60.0114 22.4269L59.2379 22.2206C59.1052 21.2461 59.366 20.3809 60.0202 19.6249C61.1424 18.3277 62.2149 17.6569 63.9817 17.6757C64.4659 17.6807 64.9441 17.6117 65.4162 17.4689C65.4398 17.4615 65.4611 17.4485 65.478 17.4311C65.6746 17.2179 65.8461 17.2348 65.9926 17.4817Z" fill="#080808"/>
<path d="M67.0794 17.6448L67.2035 17.7585C67.2634 17.8131 67.253 17.8452 67.1722 17.8549L66.7869 17.9035C66.768 17.9062 66.7499 17.9127 66.7337 17.9224C66.7176 17.9322 66.7036 17.9451 66.6928 17.9603C66.6565 18.0116 66.6156 18.0354 66.57 18.0316C66.5585 18.0307 66.5473 18.027 66.5376 18.0207C66.5278 18.0144 66.5198 18.0058 66.5142 17.9956C66.5086 17.9855 66.5056 17.9741 66.5055 17.9625C66.5054 17.9509 66.5082 17.9394 66.5136 17.9292L66.7466 17.4841C66.8316 17.3238 66.9133 17.3252 66.9917 17.4881L67.0482 17.6029C67.0557 17.6195 67.0661 17.6335 67.0794 17.6448Z" fill="#080808"/>
<path d="M66.9556 17.9895L67.0787 18.1484C66.8059 18.2281 66.7649 18.1751 66.9556 17.9895Z" fill="#080808"/>
<path d="M69.0475 23.0982L69.0773 24.1254C69.0869 24.4532 69.003 24.4797 68.8257 24.2052C68.8088 24.1796 68.7923 24.1534 68.7762 24.1268C68.1896 23.1576 68.9032 20.1017 67.8907 19.4665C67.9711 19.2064 68.0697 18.9745 68.1864 18.7708C68.3234 18.5297 68.4084 18.5472 68.4413 18.8233C68.5491 19.7353 68.6297 20.6322 68.6832 21.5138C68.7048 21.8733 68.8263 22.4014 69.0475 23.0982Z" fill="#080808"/>
<path d="M66.871 19.5598C66.537 19.992 67.3266 21.6901 67.5332 22.1602C67.5457 22.1881 67.5482 22.2195 67.5405 22.2493C67.5328 22.2791 67.5152 22.3054 67.4906 22.3242L67.3232 22.4505C67.3047 22.4645 67.283 22.4737 67.26 22.4771C67.237 22.4805 67.2136 22.4781 67.1919 22.47C67.1702 22.462 67.151 22.4485 67.1361 22.431C67.1211 22.4135 67.1109 22.3925 67.1064 22.3699C67.0392 22.0463 66.9666 21.8463 66.8884 21.77C66.4223 21.3143 65.7007 20.8821 65.9527 20.11C66.1347 19.929 66.2129 19.7115 66.1872 19.4575C66.1852 19.4367 66.188 19.4157 66.1954 19.3961C66.2028 19.3765 66.2145 19.3589 66.2297 19.3445C66.2449 19.3302 66.2632 19.3195 66.2832 19.3133C66.3032 19.3071 66.3243 19.3056 66.345 19.3088C66.5393 19.3391 66.7146 19.4228 66.871 19.5598Z" fill="#080808"/>
<path d="M61.7274 21.3385C61.4705 22.0204 61.1456 22.6524 60.7525 23.2344C60.7362 23.2585 60.7127 23.2768 60.6853 23.2868C60.658 23.2967 60.6282 23.2978 60.6002 23.2899C60.0096 23.1189 59.5554 22.7627 59.2375 22.2211L60.0111 22.4274C60.0423 22.4353 60.0756 22.4318 60.1052 22.4176C60.656 22.1539 61.1967 21.7942 61.7274 21.3385Z" fill="white"/>
<path d="M61.7879 23.9717C61.3629 23.3038 61.8683 22.8138 61.5741 22.1193C61.6945 21.9704 61.7633 21.8015 61.7804 21.6125C61.7811 21.6023 61.7854 21.5927 61.7926 21.5853C61.7998 21.5779 61.8094 21.5732 61.8198 21.5718L61.8606 21.567C61.868 21.5661 61.8754 21.5681 61.8813 21.5725C61.8873 21.5769 61.8913 21.5835 61.8925 21.5908C62.0124 22.342 61.8859 23.2166 61.7879 23.9717Z" fill="white"/>
<path d="M61.574 22.1195C61.8682 22.814 61.3628 23.304 61.7878 23.9719C61.2716 24.4323 60.8521 24.959 60.5294 25.552C60.4658 25.6674 60.2599 25.7799 59.9119 25.8895C60.0169 25.3178 60.2258 24.7936 60.5384 24.317C60.6611 24.1296 61.5981 22.3681 61.4628 22.2999L61.574 22.1195Z" fill="#080808"/>
<path d="M61.4639 22.2998C61.5992 22.3679 60.6622 24.1294 60.5394 24.3168C60.2268 24.7935 60.018 25.3176 59.9129 25.8893L59.6249 26.3478C59.4677 26.5978 59.4001 26.5759 59.4222 26.2822C59.431 26.1623 59.4447 26.0418 59.4635 25.9208C59.5453 25.3666 59.9237 24.8088 60.2358 24.3544C60.7194 23.6473 61.0398 22.9845 61.4639 22.2998Z" fill="white"/>
<path d="M66.6506 23.7743C67.0165 23.8302 67.3735 23.8001 67.7217 23.684C67.8228 23.6508 67.8394 23.6746 67.7717 23.7554C67.5383 24.0347 66.9217 24.0087 66.6125 23.9074C66.5473 23.8857 66.5215 23.8666 66.5352 23.8503C66.5571 23.8262 66.5798 23.8061 66.6003 23.7926C66.6209 23.7791 66.6384 23.7727 66.6506 23.7743Z" fill="#080808"/>
<path d="M67.6035 24.5568C67.359 24.4187 68.598 24.2407 67.6759 24.562C67.6643 24.5664 67.6518 24.5682 67.6393 24.5673C67.6267 24.5664 67.6145 24.5628 67.6035 24.5568Z" fill="#080808"/>
<path d="M66.6769 13.7923C66.381 13.6443 66.2988 13.6079 66.085 13.4964C65.8713 13.3849 65.7891 13.3484 65.7891 13.3484C65.8599 13.2126 66.1672 13.0889 66.381 13.2004C66.5947 13.3118 66.8138 13.8608 66.6769 13.7923Z" fill="white"/>
</svg>
